<?xml version="1.0" standalone="no"?>
<!DOCTYPE svg PUBLIC "-//W3C//DTD SVG 20010904//EN"
 "http://www.w3.org/TR/2001/REC-SVG-20010904/DTD/svg10.dtd">
<svg version="1.0" xmlns="http://www.w3.org/2000/svg"
 width="402.000000pt" height="402.000000pt" viewBox="0 0 402.000000 402.000000"
 preserveAspectRatio="xMidYMid meet">
<metadata>
Created by potrace 1.14, written by Peter Selinger 2001-2017
</metadata>
<g transform="translate(0.000000,402.000000) scale(0.100000,-0.100000)"
fill="#000000" stroke="none">
<path d="M125 4005 c-17 -13 -20 -27 -19 -86 0 -39 6 -75 12 -81 7 -7 12 -20
12 -29 0 -9 16 -45 35 -79 19 -34 35 -64 35 -66 0 -9 54 -68 184 -201 l139
-141 -12 -64 c-13 -74 -17 -96 -27 -161 l-7 -48 -41 6 c-34 5 -45 3 -59 -13
-35 -38 -30 -63 22 -119 l48 -53 -10 -49 -10 -48 -31 18 c-38 22 -69 16 -91
-18 -23 -35 -14 -60 45 -120 27 -29 48 -58 45 -65 -2 -7 -6 -26 -8 -43 -3 -16
-10 -57 -16 -90 -6 -33 -13 -73 -15 -89 -6 -33 15 -81 39 -90 23 -8 67 -7 82
2 11 7 63 78 63 87 0 7 72 125 76 125 10 0 84 -53 84 -60 0 -4 -12 -34 -26
-66 -30 -66 -75 -194 -69 -194 2 0 -2 -15 -10 -32 -7 -18 -16 -49 -19 -68 -3
-19 -8 -48 -12 -65 -32 -159 -36 -437 -8 -568 3 -12 6 -35 8 -52 9 -79 100
-366 118 -373 4 -2 8 -9 8 -16 0 -12 22 -54 89 -176 85 -155 269 -357 442
-487 88 -65 241 -154 334 -194 41 -17 130 -51 145 -54 8 -2 31 -9 50 -15 62
-21 213 -51 285 -57 185 -18 422 -6 555 27 25 6 54 12 65 14 44 6 215 70 305
113 95 46 262 148 268 164 2 5 10 9 17 9 7 0 15 3 17 8 2 4 17 18 33 30 77 59
217 205 285 297 25 33 48 61 53 63 4 2 7 8 7 14 0 6 16 35 35 64 19 29 35 56
35 60 0 3 10 23 22 43 13 20 23 38 24 41 0 3 11 28 23 55 74 161 140 446 137
583 0 28 2 52 5 52 6 0 4 74 -5 181 -10 111 -34 239 -62 331 -37 125 -40 132
-60 171 -8 15 -13 27 -9 27 10 0 -95 192 -151 275 -244 364 -643 631 -1069
716 -55 11 -123 21 -151 23 -28 1 -55 5 -60 7 -12 6 -224 3 -299 -5 -52 -5
-108 -14 -195 -31 -141 -27 -347 -112 -532 -218 l-38 -22 -65 65 -65 65 91 54
92 53 26 -21 c14 -12 52 -34 83 -51 63 -33 63 -33 21 47 -13 23 -27 44 -33 48
-22 13 -7 31 51 63 l60 32 37 -30 c37 -29 112 -66 112 -54 0 8 -51 97 -68 116
-13 15 -12 18 12 24 14 3 26 10 26 15 0 5 4 9 9 9 15 0 131 70 152 91 22 22
25 76 5 102 -19 24 -63 35 -106 26 -19 -4 -53 -10 -75 -14 -71 -10 -100 -16
-118 -21 -12 -4 -37 12 -79 51 -51 48 -65 55 -87 50 -54 -13 -73 -61 -41 -106
l20 -27 -52 -9 -53 -9 -51 47 c-41 38 -57 47 -75 42 -52 -13 -73 -57 -49 -103
8 -15 7 -19 -7 -19 -10 1 -31 -2 -48 -5 -49 -11 -137 -26 -178 -32 -37 -6 -39
-4 -186 139 -193 189 -311 260 -449 273 -43 3 -62 1 -77 -11z m812 -1218 c-30
-36 -62 -76 -71 -88 -8 -13 -17 -21 -18 -18 -2 2 -18 23 -36 46 -17 23 -32 44
-32 47 0 4 23 47 52 97 l51 91 55 -55 55 -55 -56 -65z m-172 -117 c10 -11 24
-20 31 -20 24 0 20 -24 -13 -74 -18 -28 -33 -56 -33 -62 0 -6 -6 -17 -14 -23
-12 -10 -17 -8 -27 11 -6 13 -21 33 -32 45 l-20 23 31 51 c18 27 32 55 32 60
0 16 26 10 45 -11z"/>
</g>
</svg>
